<svg width="577" height="100" viewBox="0 0 577 100" fill="none" xmlns="http://www.w3.org/2000/svg">
<path fill-rule="evenodd" clip-rule="evenodd" d="M50 0C22.3858 0 0 22.3858 0 50C0 77.6142 22.3858 100 50 100C77.6142 100 100 77.6142 100 50C100 22.3858 77.6142 0 50 0ZM1.96078 50C1.96078 23.4687 23.4687 1.96078 50 1.96078C53.0436 1.96078 56.0212 2.24384 58.9077 2.78505C62.565 21.7829 64.3806 35.9053 64.379 49.9814C64.3774 64.1076 62.5455 78.2276 58.8686 97.2223C55.9943 97.7587 53.0299 98.0392 50 98.0392C23.4687 98.0392 1.96078 76.5313 1.96078 50ZM60.9497 96.7857C82.2051 91.8306 98.0392 72.7644 98.0392 50C98.0392 27.2493 82.2243 8.19247 60.9883 3.22329C64.5529 21.8722 66.3414 35.9299 66.3398 49.9817C66.3382 64.0835 64.5336 78.1401 60.9497 96.7857Z" fill="#0B041F"/>
<path d="M60.8824 96.8627C68.1297 59.411 67.9312 38.774 60.8824 3.13725C80.8166 8.14731 98.25 23.6964 98.0392 50C98.6881 76.3908 77.5037 94.2348 60.8824 96.8627Z" fill="#0B041F"/>
<path d="M152.8 81.2C161.5 81.2 167.4 77.6 172.5 72.4C172.9 72 173.1 71.4 173.1 70.9C173.1 69.7 171.9 68.5 170.7 68.5C170 68.5 169.5 68.9 169.1 69.3C165 73.4 159.7 76.6 153.1 76.6C141.4 76.6 132.1 66.8 132.1 54.5V54.3C132.1 42.1 141.1 32.4 152.7 32.4C159.6 32.4 164.4 35.7 168.5 39.6C168.9 40 169.6 40.2 170.2 40.2C171.6 40.2 172.7 39.1 172.7 37.7C172.7 37 172.4 36.3 172 35.9C167.4 31.6 161.6 27.8 152.8 27.8C138.2 27.8 126.8 40.2 126.8 54.5V54.7C126.8 69 138.1 81.2 152.8 81.2ZM186.429 77.9C186.429 79.4 187.529 80.4 188.929 80.4C190.329 80.4 191.329 79.3 191.329 77.9V59.1C191.329 42.7 201.029 34.6 211.829 33.6C213.429 33.5 214.429 32.3 214.429 30.9C214.429 29.4 213.329 28.2 211.829 28.2C204.629 28.2 195.729 33.6 191.329 43.5V31.1C191.329 29.6 190.229 28.6 188.829 28.6C187.429 28.6 186.429 29.7 186.429 31.1V77.9ZM224.629 52.1C225.529 40.8 233.329 32.3 243.429 32.3C255.129 32.3 261.029 41.8 261.729 52.1H224.629ZM264.329 72.9C264.929 72.3 265.129 71.7 265.129 71.2C265.129 69.9 264.029 68.9 262.729 68.9C262.029 68.9 261.529 69.2 261.129 69.6C257.029 73.6 251.929 76.6 244.629 76.6C234.629 76.6 225.529 69.2 224.629 56.5H264.629C265.829 56.5 267.029 55.4 267.029 54.2C267.029 39.6 257.929 27.8 243.629 27.8C229.829 27.8 219.429 39.6 219.429 54.4V54.6C219.429 70.5 231.029 81.2 244.429 81.2C253.629 81.2 259.329 77.9 264.329 72.9ZM295.827 81.2C305.527 81.2 311.827 76.4 315.327 71.5V77.9C315.327 79.4 316.327 80.4 317.727 80.4C319.127 80.4 320.127 79.4 320.127 77.9V48.2C320.127 41.9 318.327 37.2 314.927 33.8C311.227 30.1 305.727 28.2 298.827 28.2C292.327 28.2 287.227 29.7 282.027 32C281.527 32.2 280.627 33 280.627 34.2C280.627 35.4 281.727 36.5 282.927 36.5C283.227 36.5 283.627 36.4 284.027 36.2C288.227 34.2 292.927 32.8 298.527 32.8C309.027 32.8 315.327 38.1 315.327 48.4V50.6C310.427 49.3 305.527 48.4 298.427 48.4C285.227 48.4 276.127 54.4 276.127 65V65.2C276.127 75.8 286.327 81.2 295.827 81.2ZM296.127 76.6C288.327 76.6 281.327 72.3 281.327 64.9V64.7C281.327 57.6 287.327 52.8 298.127 52.8C305.427 52.8 311.127 54 315.427 55.1V60.9C315.427 70.2 306.527 76.6 296.127 76.6ZM353.261 80.9C356.161 80.9 358.461 80.3 360.461 79.6C361.461 79.2 362.061 78.5 362.061 77.5C362.061 76.3 360.961 75.3 359.861 75.3C359.161 75.3 357.561 76.3 354.061 76.3C348.161 76.3 343.861 73.7 343.861 66.4V33.5H359.861C361.061 33.5 362.161 32.5 362.161 31.3C362.161 30.1 361.061 29 359.861 29H343.861V14.8C343.861 13.4 342.761 12.3 341.361 12.3C339.961 12.3 338.961 13.4 338.961 14.8V29H333.461C332.261 29 331.161 30 331.161 31.2C331.161 32.4 332.261 33.5 333.461 33.5H338.961V66.9C338.961 76.6 345.361 80.9 353.261 80.9ZM375.535 52.1C376.435 40.8 384.235 32.3 394.335 32.3C406.035 32.3 411.935 41.8 412.635 52.1H375.535ZM415.235 72.9C415.835 72.3 416.035 71.7 416.035 71.2C416.035 69.9 414.935 68.9 413.635 68.9C412.935 68.9 412.435 69.2 412.035 69.6C407.935 73.6 402.835 76.6 395.535 76.6C385.535 76.6 376.435 69.2 375.535 56.5H415.535C416.735 56.5 417.935 55.4 417.935 54.2C417.935 39.6 408.835 27.8 394.535 27.8C380.735 27.8 370.335 39.6 370.335 54.4V54.6C370.335 70.5 381.935 81.2 395.335 81.2C404.535 81.2 410.235 77.9 415.235 72.9ZM482.634 14C482.634 9.8 479.234 6.39999 475.034 6.39999C470.834 6.39999 467.434 9.8 467.434 14V33.4C463.834 29.1 458.834 25.4 450.734 25.4C438.034 25.4 426.334 35.2 426.334 53.1V53.3C426.334 71.2 438.234 81 450.734 81C458.634 81 463.734 77.3 467.434 72.3V73C467.434 77.2 470.834 80.6 475.034 80.6C479.234 80.6 482.634 77.2 482.634 73V14ZM454.634 38.3C461.734 38.3 467.634 44.2 467.634 53.1V53.3C467.634 62.2 461.734 68.1 454.634 68.1C447.534 68.1 441.534 62.2 441.534 53.3V53.1C441.534 44.1 447.534 38.3 454.634 38.3ZM495.014 13.8C495.014 18.2 498.714 21 503.514 21C508.314 21 512.014 18.2 512.014 13.8V13.6C512.014 9.2 508.314 6.5 503.514 6.5C498.714 6.5 495.014 9.2 495.014 13.6V13.8ZM495.914 73C495.914 77.2 499.314 80.6 503.514 80.6C507.714 80.6 511.114 77.2 511.114 73V33.4C511.114 29.2 507.714 25.8 503.514 25.8C499.314 25.8 495.914 29.2 495.914 33.4V73ZM555.99 74.5L572.39 36.6C572.69 35.9 573.19 34.3 573.19 33C573.19 28.9 569.89 25.8 565.89 25.8C561.89 25.8 559.79 28.4 558.79 31L547.09 62.3L535.59 31.2C534.49 28.1 532.29 25.8 528.19 25.8C524.09 25.8 520.79 29.3 520.79 32.9C520.79 34.3 521.19 35.6 521.59 36.6L537.99 74.5C539.69 78.5 542.49 81.1 546.59 81.1H547.39C551.49 81.1 554.29 78.4 555.99 74.5Z" fill="#0B041F"/>
</svg>
